/* XPM */
static char *_091_6610963132c82b91447160691ad6cf614c1b29e6c5e2ac791e763f22db8d483f[] = {
/* columns rows colors chars-per-pixel */
"32 32 84 1 ",
"  c #373C4B",
". c #354555",
"X c #3E4355",
"o c #354858",
"O c #146271",
"+ c #146373",
"@ c #146474",
"# c #146574",
"$ c #156777",
"% c #166D7E",
"& c #166E7F",
"* c #42485B",
"= c #595E6F",
"- c #595F70",
"; c #5A5F70",
": c #576678",
"> c #566779",
", c #616777",
"< c #626979",
"1 c #167081",
"2 c #177082",
"3 c #177183",
"4 c #177284",
"5 c #177385",
"6 c #2E7489",
"7 c #2E768B",
"8 c #2D798F",
"9 c #2D7A90",
"0 c #2D7B91",
"q c #2D7C92",
"w c #6F7C86",
"e c #6E7C87",
"r c #707F89",
"t c #727F89",
"y c #2C879E",
"u c #1D90A6",
"i c #1D91A7",
"p c #1D93AA",
"a c #1E94AA",
"s c #1E96AC",
"d c #1E97AE",
"f c #1E98AF",
"g c #1E99B0",
"h c #2B88A0",
"j c #2B8BA2",
"k c #2C89A1",
"l c #2B8DA5",
"z c #2A8EA6",
"x c #2A8FA7",
"c c #2A90A8",
"v c #2A91A9",
"b c #319DB6",
"n c #319EB8",
"m c #319FB8",
"M c #2FA5BF",
"N c #30A0B9",
"B c #21A6C0",
"V c #21A7C1",
"C c #2FA6C0",
"Z c #2EA7C0",
"A c #21A8C1",
"S c #21A8C2",
"D c #22A9C4",
"F c #22AAC5",
"G c #27AFCA",
"H c #23B0CA",
"J c #23B0CB",
"K c #23B1CC",
"L c #23B2CE",
"P c #23B3CF",
"I c #26B1CC",
"U c #26B1CD",
"Y c #24B3CF",
"T c #25B3CF",
"R c #24B5D1",
"E c #25B6D2",
"W c #25B7D3",
"Q c #52BCD1",
"! c #53BDD1",
"~ c #54BDD1",
"^ c #55BDD1",
"/ c #B3C9CD",
"( c #B0C9CE",
") c None",
/* pixels */
"))))))))))))%uVYYVi&))))))))))))",
")))))))))&HWWWWWWWWWWH1)))))))))",
")))))))OLWWWWWWWWWWWWWWL+)))))))",
"))))))sWWWWWWWWWWWWWWWWWWd))))))",
")))))BWWWWWWWWWWWWWWWWWWWWA)))))",
"))))BWWWWWWWWWWWWWWWWWWWWWWA))))",
")))sWWWWWWWWWWWWWWWWWWWWWWWWf)))",
"))OWWWWWWWWWWWWWWWWWWWWWWWWWW#))",
"))LWWWWvo9WWWWWWWWWWWWqoxWWWWP))",
")&WWWWWl 6WWWWWWWWWWWW7 jWWWWW4)",
")HWWWETj 6WWWWWWWWWWWW7 hTEWWWJ)",
")WWWWI*X 6WWWWWWWWWWWW7 X*GWWWW)",
"%WWWZN*X 6WWWWWWWWWWWW7 X*nCWWW2",
"uWWW>-*X 6WWWWWWWWWWWW7 X*=:WWWp",
"VWWW>-*X 6WWWWWWWWWWWW7 X*=:WWWD",
"YWQ(<;*X e((((((((((((r X*=,(~WR",
"YW!/<;*X w////////////t X*=,/^WR",
"VWWW>-*X 6WWWWWWWWWWWW7 X*=:WWWF",
"iWWW>-*X 6WWWWWWWWWWWW7 X*=:WWWa",
"&WWWMm*X 6WWWWWWWWWWWW7 X*bMWWW3",
")WWWWI*X 6WWWWWWWWWWWW7 X*GWWWW)",
")HWWWEUk 6WWWWWWWWWWWW7 yUEWWWK)",
")1WWWWWl 6WWWWWWWWWWWW7 jWWWWW5)",
"))LWWWWc.8WWWWWWWWWWWW0.zWWWWP))",
"))@WWWWWWWWWWWWWWWWWWWWWWWWWW$))",
")))dWWWWWWWWWWWWWWWWWWWWWWWWg)))",
"))))AWWWWWWWWWWWWWWWWWWWWWWS))))",
")))))AWWWWWWWWWWWWWWWWWWWWS)))))",
"))))))fWWWWWWWWWWWWWWWWWWg))))))",
")))))))#PWWWWWWWWWWWWWWP$)))))))",
")))))))))4JWWWWWWWWWWK5)))))))))",
"))))))))))))2pDRRFa3))))))))))))"
};
