/* XPM */
static char *c4809e064382417083867074c9f26f42[] = {
/* columns rows colors chars-per-pixel */
"32 32 106 2 ",
"   c None",
".  c #612772",
"X  c #68297C",
"o  c #692A7C",
"O  c #6A2A7C",
"+  c #6C2B7F",
"@  c #D22020",
"#  c #D32020",
"$  c #D32323",
"%  c #D32626",
"&  c #D63434",
"*  c #D84343",
"=  c #DD5F5F",
"-  c #DF6969",
";  c #E37373",
":  c #6E2B82",
">  c #713B82",
",  c #7A3F8C",
"<  c #9039AA",
"1  c #923AAD",
"2  c #963BB1",
"3  c #9E3FBA",
"4  c #824496",
"5  c #86469A",
"6  c #88479D",
"7  c #AA44C9",
"8  c #AC44CB",
"9  c #AD45CD",
"0  c #AD5AC7",
"q  c #B05BCA",
"w  c #B05CCA",
"e  c #B447D4",
"r  c #B648D8",
"t  c #B649D8",
"y  c #B749D9",
"u  c #B849DA",
"i  c #BB4ADD",
"p  c #B860D3",
"a  c #BF4CE2",
"s  c #C24DE5",
"d  c #CB51F0",
"f  c #CC57F0",
"g  c #CD57F0",
"h  c #CD58F0",
"j  c #CE5BF0",
"k  c #CF5FF1",
"l  c #C567E2",
"z  c #C668E3",
"x  c #CA69E8",
"c  c #CB6AEA",
"v  c #D064F1",
"b  c #D165F1",
"n  c #D361F7",
"m  c #D26EF1",
"M  c #D36EF3",
"N  c #D56FF5",
"B  c #D677F3",
"V  c #D770F7",
"C  c #D870F8",
"Z  c #D971F9",
"A  c #D972FA",
"S  c #DE74FF",
"D  c #DF78FF",
"F  c #E48585",
"G  c #E58989",
"H  c #EAA0A0",
"J  c #EAA1A1",
"K  c #ECADAD",
"L  c #F0BBBB",
"P  c #F0BFBF",
"I  c #DD8EF5",
"U  c #DD82F9",
"Y  c #DE90F5",
"T  c #E181FF",
"R  c #E38CFF",
"E  c #E491FF",
"W  c #E4A6F7",
"Q  c #E5A8F7",
"!  c #E9A3FF",
"~  c #EDB6FF",
"^  c #F2C9C9",
"/  c #F5D9D9",
"(  c #ECC0F9",
")  c #ECC1F9",
"_  c #F2C9FF",
"`  c #F3D7FB",
"'  c #F3D8FB",
"]  c #F7DEFF",
"[  c #F7E2E2",
"{  c #F7E7FC",
"}  c #F8E9FD",
"|  c #F9EBFD",
" . c #F9ECFD",
".. c #FAEDFF",
"X. c #FBEFFF",
"o. c #FBF3F3",
"O. c #FBF3FE",
"+. c #FCF6FE",
"@. c #FCF7FE",
"#. c #FCF6FF",
"$. c #FDFBFB",
"%. c #FCF8FE",
"&. c #FDF8FF",
"*. c #FEFDFF",
"=. c #FEFEFE",
"-. c white",
/* pixels */
"                        5 q c Z V c 0 4                         ",
"                  6 N S S S S S S S S S S M 4                   ",
"              , Z S S S S S S S S S S S S S S N >               ",
"            p S S S S S S S S S S S S S S S S S S w             ",
"          c S S S S S S S S S S S S S S S S S S S S z           ",
"        c S S S S S S S S S S S S S S S S S S S S S n e         ",
"      p S S S S S S S S S S S S S S S S S S S S S n d d 3       ",
"    , S S S S S S S S S S S S S S S S S S S S S n d d d d .     ",
"    Z S S S S S S S S E R S S S S S S S S S S n d d d d d s     ",
"  6 S S S S S S S S S X.-._ T S S S S S S S n d d d d d d d :   ",
"  N S S S S S S S S S +.-.-.@.~ D S S S S n d d d d d d d d i   ",
"  S S S S S S S S S S +.-.-.-.-.X.! S S n d d d d d d d d d d   ",
"5 S S S S S S S S S S +.-.J J $.-.-.] U d d d d d d d d d d d + ",
"q S S S S S S S S S S +.-.; # * P -.-.-.( v d d d d d d d d d 1 ",
"c S S S S S S S S S S +.-.; @ # @ = / -.-.%.Q g d d d d d d d 8 ",
"Z S S S S S S S S S S +.-.; @ # # @ @ F -.-.-.} j d d d d d d u ",
"C S S S S S S S S S S @.-.; # # # # & K -.-.-.` f d d d d d d e ",
"x S S S S S S S S S S @.-.; # @ % G o.-.-.X.I d d d d d d d d 7 ",
"0 S S S S S S S S S S @.-.; @ - [ -.-.%.Q h d d d d d d d d d < ",
"4 S S S S S S S S S S @.-.L ^ -.-.-.( v d d d d d d d d d d d O ",
"  S S S S S S S S S S @.-.-.-.-.' B d d d d d d d d d d d d d   ",
"  m S S S S S S S S n O.-.-.} I d d d d d d d d d d d d d d y   ",
"  4 S S S S S S S n d { @.W f d d d d d d d d d d d d d d d O   ",
"    V S S S S S n d d v k d d d d d d d d d d d d d d d d a     ",
"    > S S S S n d d d d d d d d d d d d d d d d d d d d d       ",
"      w S S n d d d d d d d d d d d d d d d d d d d d d 2       ",
"        l n d d d d d d d d d d d d d d d d d d d d d 9         ",
"          e d d d d d d d d d d d d d d d d d d d d 9           ",
"            3 d d d d d d d d d d d d d d d d d d 2             ",
"              . s d d d d d d d d d d d d d d a                 ",
"                  : i d d d d d d d d d d u O                   ",
"                        : 1 7 y y 7 < O                         "
};
